<?xml version="1.0" encoding="UTF-8"?>
<svg xmlns="http://www.w3.org/2000/svg" xmlns:xlink="http://www.w3.org/1999/xlink" width="348.72pt" height="129.44pt" viewBox="0 0 348.72 129.44" version="1.1">
<defs>
<clipPath id="clip1">
  <path d="M 71 103 L 95 103 L 95 129.441406 L 71 129.441406 Z M 71 103 "/>
</clipPath>
<clipPath id="clip2">
  <path d="M 147 103 L 172 103 L 172 129.441406 L 147 129.441406 Z M 147 103 "/>
</clipPath>
<clipPath id="clip3">
  <path d="M 122 103 L 146 103 L 146 129.441406 L 122 129.441406 Z M 122 103 "/>
</clipPath>
<clipPath id="clip4">
  <path d="M 326 103 L 348.71875 103 L 348.71875 129.441406 L 326 129.441406 Z M 326 103 "/>
</clipPath>
<clipPath id="clip5">
  <path d="M 301 103 L 325 103 L 325 129.441406 L 301 129.441406 Z M 301 103 "/>
</clipPath>
</defs>
<g id="surface1">
<path style=" stroke:none;fill-rule:nonzero;fill:rgb(74.899292%,14.498901%,15.299988%);fill-opacity:1;" d="M 142.8125 66.402344 L 157.847656 66.402344 L 150.523438 43.078125 L 150.386719 43.078125 Z M 135.429688 88.738281 L 122.449219 88.738281 L 143.46875 29.796875 L 157.683594 29.796875 L 178.457031 88.738281 L 165.066406 88.738281 L 161.277344 76.582031 L 139.546875 76.582031 L 135.429688 88.738281 "/>
<path style=" stroke:none;fill-rule:nonzero;fill:rgb(16.099548%,21.598816%,43.099976%);fill-opacity:1;" d="M 198.816406 66.402344 L 213.824219 66.402344 L 206.527344 43.078125 L 206.363281 43.078125 Z M 191.433594 88.738281 L 178.457031 88.738281 L 199.476563 29.796875 L 213.6875 29.796875 L 234.460938 88.738281 L 221.070313 88.738281 L 217.285156 76.582031 L 195.523438 76.582031 L 191.433594 88.738281 "/>
<path style=" stroke:none;fill-rule:nonzero;fill:rgb(16.099548%,21.598816%,43.099976%);fill-opacity:1;" d="M 194.289063 15.417969 C 194.8125 17.285156 194.8125 18.273438 194.125 20.46875 L 188.003906 38.550781 L 181.445313 20.222656 C 181.445313 20.222656 182.214844 18.136719 182.65625 17.039063 C 182.957031 17.039063 183.585938 17.753906 183.585938 17.753906 C 183.585938 17.753906 182.875 15.640625 183.121094 15.199219 L 184.136719 12.675781 L 185.179688 13.359375 C 184.960938 12.757813 184.632813 11.359375 184.632813 11.359375 L 185.589844 8.421875 L 186.6875 8.945313 C 186.6875 8.945313 185.945313 6.886719 186.140625 6.585938 L 188.664063 -0.00390625 C 190.695313 4.964844 192.421875 10.316406 194.289063 15.417969 "/>
<path style=" stroke:none;fill-rule:nonzero;fill:rgb(16.099548%,21.598816%,43.099976%);fill-opacity:1;" d="M 189.433594 48.730469 C 189.566406 49.226563 189.515625 49.882813 188.992188 50.679688 C 189.074219 51.695313 189.019531 52.105469 188.691406 52.519531 C 188.390625 52.792969 188.085938 52.929688 187.675781 52.902344 C 187.757813 52.601563 187.757813 52.160156 187.675781 52.023438 C 186.304688 50.296875 183.285156 46.785156 183.285156 46.785156 L 181.722656 46.785156 L 180.214844 50.597656 L 180.816406 51.640625 C 180.816406 51.640625 182.242188 51.613281 182.816406 51.640625 C 182.957031 51.667969 183.039063 51.777344 183.148438 51.96875 L 183.148438 52.546875 C 183.066406 52.4375 182.847656 52.351563 182.710938 52.324219 C 181.226563 52.324219 180.265625 52.324219 178.894531 52.378906 L 178.398438 52.601563 C 178.238281 52.105469 178.621094 51.640625 179.003906 51.640625 C 179.25 51.640625 179.582031 51.667969 179.496094 51.421875 C 179.335938 51.144531 179.226563 50.980469 179.003906 50.707031 L 177.25 50.707031 C 175.601563 45.851563 173.847656 40.992188 172.363281 36.082031 C 172.941406 36.082031 173.847656 35.78125 173.847656 35.78125 C 173.847656 35.78125 172.089844 35.09375 171.734375 34.160156 C 171.378906 33.253906 170.167969 29.933594 170.167969 29.933594 C 170.167969 29.933594 171.183594 29.851563 171.597656 29.632813 C 171.046875 29.246094 169.703125 28.753906 169.453125 28.125 C 168.742188 26.3125 168.304688 24.503906 168.304688 24.503906 C 168.304688 24.503906 170.003906 24.363281 169.785156 24.257813 C 168.824219 23.816406 167.589844 22.609375 167.589844 22.609375 C 167.589844 22.609375 166.382813 19.316406 166.4375 19.289063 C 166.546875 19.261719 168.082031 19.316406 168.082031 19.316406 C 167.699219 18.464844 166.4375 18.027344 166.765625 16.957031 C 167.121094 15.585938 167.726563 14.15625 167.972656 13.304688 L 168.9375 13.910156 C 168.824219 13.335938 168.523438 11.496094 168.523438 11.496094 L 169.8125 7.789063 L 170.773438 8.449219 L 170.472656 5.980469 L 172.5 0.601563 L 177.960938 16.023438 L 189.433594 48.730469 "/>
<path style=" stroke:none;fill-rule:nonzero;fill:rgb(16.099548%,21.598816%,43.099976%);fill-opacity:1;" d="M 170.085938 47.714844 L 169.59375 46.917969 L 168.988281 47.714844 L 166.628906 47.714844 L 171.734375 40.003906 L 174.5625 47.714844 L 173.105469 47.714844 L 172.585938 46.894531 L 172.007813 47.714844 L 170.085938 47.714844 "/>
<path style=" stroke:none;fill-rule:nonzero;fill:rgb(74.899292%,14.498901%,15.299988%);fill-opacity:1;" d="M 11.03125 116.367188 L 19.402344 116.367188 L 15.335938 103.382813 L 15.234375 103.382813 Z M 7.214844 128.789063 L 0 128.789063 L 11.550781 95.457031 L 19.316406 95.457031 L 30.863281 128.789063 L 23.425781 128.789063 L 21.089844 121.425781 L 9.507813 121.425781 L 7.214844 128.789063 "/>
<path style=" stroke:none;fill-rule:nonzero;fill:rgb(74.899292%,14.498901%,15.299988%);fill-opacity:1;" d="M 68.679688 128.789063 L 62.289063 128.789063 L 62.289063 114.488281 C 62.289063 110.878906 60.011719 109.683594 58.136719 109.683594 C 54.941406 109.683594 53.800781 111.78125 53.800781 114.667969 L 53.800781 128.789063 L 47.839844 128.789063 L 47.839844 114.621094 C 47.839844 112.566406 47.398438 109.683594 43.550781 109.683594 C 40.535156 109.683594 39.574219 111.78125 39.574219 114.445313 L 39.574219 128.789063 L 33.1875 128.789063 L 33.1875 104.992188 L 39.308594 104.992188 L 39.308594 107.226563 L 39.398438 107.226563 C 40.226563 105.617188 42.355469 104.0625 45.773438 104.0625 C 49.039063 104.0625 51.421875 105.351563 53.0625 107.953125 C 53.890625 106.769531 55.578125 103.988281 59.847656 103.988281 C 64.613281 103.988281 68.679688 106.636719 68.679688 111.976563 L 68.679688 128.789063 "/>
<g clip-path="url(#clip1)" clip-rule="nonzero">
<path style=" stroke:none;fill-rule:nonzero;fill:rgb(74.899292%,14.498901%,15.299988%);fill-opacity:1;" d="M 88.503906 114.222656 C 88.136719 110.289063 85.171875 109.09375 83.117188 109.09375 C 80.101563 109.09375 78.199219 111.015625 77.835938 114.222656 Z M 94.28125 121.660156 C 92.59375 127.519531 87.746094 129.441406 83.589844 129.441406 C 76.734375 129.441406 71.253906 126.144531 71.253906 116.132813 C 71.253906 113.21875 72.558594 103.84375 83.207031 103.84375 C 88.003906 103.84375 94.632813 106.132813 94.632813 117.226563 L 94.632813 118.378906 L 77.648438 118.378906 C 77.835938 120.195313 78.425781 124.324219 83.589844 124.324219 C 85.371094 124.324219 87.652344 123.40625 88.152344 121.660156 L 94.28125 121.660156 "/>
</g>
<path style=" stroke:none;fill-rule:nonzero;fill:rgb(74.899292%,14.498901%,15.299988%);fill-opacity:1;" d="M 111.480469 109.90625 C 111.089844 109.890625 110.675781 109.890625 110.296875 109.890625 C 106.664063 109.890625 104.398438 112.464844 104.398438 113.898438 L 104.398438 128.789063 L 98.003906 128.789063 L 98.003906 104.992188 L 104.128906 104.992188 L 104.128906 107.097656 L 104.21875 107.097656 C 105.769531 104.96875 108.714844 104.140625 110.890625 104.140625 C 111.089844 104.140625 111.289063 104.152344 111.484375 104.167969 L 111.480469 109.90625 "/>
<path style=" stroke:none;fill-rule:nonzero;fill:rgb(74.899292%,14.498901%,15.299988%);fill-opacity:1;" d="M 119.8125 101.609375 L 113.414063 101.609375 L 113.414063 96.714844 L 119.8125 96.714844 Z M 119.8125 104.992188 L 119.8125 128.789063 L 113.414063 128.789063 L 113.414063 104.992188 L 119.8125 104.992188 "/>
<g clip-path="url(#clip2)" clip-rule="nonzero">
<path style=" stroke:none;fill-rule:nonzero;fill:rgb(74.899292%,14.498901%,15.299988%);fill-opacity:1;" d="M 163.574219 116.960938 C 162.9375 117.460938 161.886719 117.535156 159.234375 117.949219 C 156.859375 118.363281 153.992188 119.296875 153.992188 121.941406 C 153.992188 124.175781 156.632813 124.871094 157.863281 124.871094 C 160.699219 124.871094 163.574219 123.039063 163.574219 120.0625 Z M 169.835938 124.042969 C 169.835938 126.925781 171.105469 128.789063 171.105469 128.789063 L 164.351563 128.789063 C 163.988281 127.648438 163.894531 128.570313 163.757813 127.191406 C 162.296875 128.699219 160.238281 129.441406 155.898438 129.441406 C 152.242188 129.441406 147.59375 127.386719 147.59375 122.355469 C 147.59375 117.59375 151.511719 114.8125 155.578125 114.222656 L 161.335938 113.5 C 162.34375 113.367188 163.574219 113.160156 163.574219 111.800781 C 163.574219 109.09375 161.015625 108.957031 159.371094 108.957031 C 156.171875 108.957031 154.871094 110.925781 154.691406 112.34375 L 149.273438 112.34375 C 150.003906 104.890625 155.167969 103.84375 160.148438 103.84375 C 163.574219 103.84375 169.835938 104.890625 169.835938 110.878906 L 169.835938 124.042969 "/>
</g>
<path style=" stroke:none;fill-rule:nonzero;fill:rgb(74.899292%,14.498901%,15.299988%);fill-opacity:1;" d="M 195.316406 128.789063 L 188.914063 128.789063 L 188.914063 114.5625 C 188.914063 112.582031 188.023438 109.757813 184.757813 109.757813 C 181.441406 109.757813 180.03125 111.679688 180.03125 115.375 L 180.03125 128.789063 L 173.632813 128.789063 L 173.632813 104.992188 L 179.757813 104.992188 L 179.757813 108.042969 L 179.851563 108.042969 C 180.71875 106.589844 181.867188 103.988281 186.484375 103.988281 C 191.234375 103.988281 195.316406 107.464844 195.316406 112.804688 L 195.316406 128.789063 "/>
<g clip-path="url(#clip3)" clip-rule="nonzero">
<path style=" stroke:none;fill-rule:nonzero;fill:rgb(74.899292%,14.498901%,15.299988%);fill-opacity:1;" d="M 122.6875 116.5625 C 122.882813 124.058594 126.347656 129.339844 134.328125 129.339844 C 138.167969 129.339844 145.078125 127.605469 145.671875 120.019531 L 139.558594 120.019531 C 139.558594 121.660156 138.308594 123.953125 134.328125 123.953125 C 130.308594 123.953125 128.957031 119.933594 128.957031 116.917969 C 128.957031 116.796875 128.957031 116.308594 128.957031 116.207031 C 128.957031 113.1875 130.308594 109.164063 134.328125 109.164063 C 138.308594 109.164063 139.558594 111.441406 139.558594 113.085938 L 145.671875 113.085938 C 145.078125 105.5 138.167969 103.765625 134.328125 103.765625 C 126.347656 103.765625 122.882813 109.0625 122.6875 116.5625 "/>
</g>
<path style=" stroke:none;fill-rule:nonzero;fill:rgb(16.099548%,21.598816%,43.099976%);fill-opacity:1;" d="M 208.765625 116.367188 L 217.125 116.367188 L 213.058594 103.382813 L 212.964844 103.382813 Z M 204.648438 128.789063 L 197.429688 128.789063 L 209.128906 95.976563 L 217.035156 95.976563 L 228.597656 128.789063 L 221.148438 128.789063 L 219.046875 122.03125 L 206.933594 122.03125 L 204.648438 128.789063 "/>
<path style=" stroke:none;fill-rule:nonzero;fill:rgb(16.099548%,21.598816%,43.099976%);fill-opacity:1;" d="M 262.441406 128.789063 L 256.039063 128.789063 L 256.039063 96.714844 L 262.441406 96.714844 L 262.441406 128.789063 "/>
<g clip-path="url(#clip4)" clip-rule="nonzero">
<path style=" stroke:none;fill-rule:nonzero;fill:rgb(16.099548%,21.598816%,43.099976%);fill-opacity:1;" d="M 341.734375 111.886719 C 341.460938 110.335938 340.910156 108.691406 337.4375 108.691406 C 333.960938 108.691406 333.507813 110.007813 333.507813 111.058594 C 333.507813 114.414063 345.609375 112.035156 348.226563 118.007813 C 348.546875 118.734375 348.722656 120.09375 348.722656 121.070313 C 348.722656 128.15625 341.867188 129.441406 338.074219 129.441406 C 332.546875 129.441406 326.859375 127.519531 326.675781 119.828125 L 332.957031 119.828125 C 332.957031 123.082031 334.238281 124.589844 338.257813 124.589844 C 341.550781 124.589844 342.324219 122.992188 342.324219 122.074219 C 342.324219 117.3125 327.246094 121.070313 327.246094 111.976563 C 327.246094 108.410156 329.484375 103.84375 337.070313 103.84375 C 341.824219 103.84375 347.488281 105.023438 347.992188 111.886719 L 341.734375 111.886719 "/>
</g>
<path style=" stroke:none;fill-rule:nonzero;fill:rgb(16.099548%,21.598816%,43.099976%);fill-opacity:1;" d="M 236.589844 101.609375 L 230.191406 101.609375 L 230.191406 96.714844 L 236.589844 96.714844 Z M 236.589844 104.992188 L 236.589844 128.789063 L 230.191406 128.789063 L 230.191406 104.992188 L 236.589844 104.992188 "/>
<path style=" stroke:none;fill-rule:nonzero;fill:rgb(16.099548%,21.598816%,43.099976%);fill-opacity:1;" d="M 272.882813 101.609375 L 266.484375 101.609375 L 266.484375 96.714844 L 272.882813 96.714844 Z M 272.882813 104.992188 L 272.882813 128.789063 L 266.484375 128.789063 L 266.484375 104.992188 L 272.882813 104.992188 "/>
<path style=" stroke:none;fill-rule:nonzero;fill:rgb(16.099548%,21.598816%,43.099976%);fill-opacity:1;" d="M 253.957031 109.90625 C 253.5625 109.890625 253.148438 109.890625 252.769531 109.890625 C 249.140625 109.890625 246.875 112.464844 246.875 113.898438 L 246.875 128.789063 L 240.476563 128.789063 L 240.476563 104.992188 L 246.601563 104.992188 L 246.601563 107.097656 L 246.691406 107.097656 C 248.242188 104.96875 251.191406 104.140625 253.367188 104.140625 C 253.5625 104.140625 253.761719 104.152344 253.960938 104.167969 L 253.957031 109.90625 "/>
<path style=" stroke:none;fill-rule:nonzero;fill:rgb(16.099548%,21.598816%,43.099976%);fill-opacity:1;" d="M 298.261719 128.789063 L 291.863281 128.789063 L 291.863281 114.5625 C 291.863281 112.582031 290.972656 109.757813 287.703125 109.757813 C 284.390625 109.757813 282.980469 111.679688 282.980469 115.375 L 282.980469 128.789063 L 276.582031 128.789063 L 276.582031 104.992188 L 282.707031 104.992188 L 282.707031 108.042969 L 282.796875 108.042969 C 283.664063 106.589844 284.816406 103.988281 289.433594 103.988281 C 294.183594 103.988281 298.261719 107.464844 298.261719 112.804688 L 298.261719 128.789063 "/>
<g clip-path="url(#clip5)" clip-rule="nonzero">
<path style=" stroke:none;fill-rule:nonzero;fill:rgb(16.099548%,21.598816%,43.099976%);fill-opacity:1;" d="M 318.597656 114.222656 C 318.230469 110.289063 315.265625 109.09375 313.210938 109.09375 C 310.191406 109.09375 308.292969 111.015625 307.929688 114.222656 Z M 324.375 121.660156 C 322.6875 127.519531 317.84375 129.441406 313.683594 129.441406 C 306.828125 129.441406 301.347656 126.144531 301.347656 116.132813 C 301.347656 113.21875 302.652344 103.84375 313.300781 103.84375 C 318.101563 103.84375 324.726563 106.132813 324.726563 117.226563 L 324.726563 118.378906 L 307.742188 118.378906 C 307.929688 120.195313 308.519531 124.324219 313.683594 124.324219 C 315.46875 124.324219 317.746094 123.40625 318.246094 121.660156 L 324.375 121.660156 "/>
</g>
</g>
</svg>
